<svg xmlns="http://www.w3.org/2000/svg" xmlns:xlink="http://www.w3.org/1999/xlink" width="838" zoomAndPan="magnify" viewBox="0 0 628.5 628.49998" height="838" preserveAspectRatio="xMidYMid meet" version="1.0"><defs><clipPath id="898da42e5d"><path d="M 34.453125 68 L 472 68 L 472 474 L 34.453125 474 Z M 34.453125 68 " clip-rule="nonzero"/></clipPath><clipPath id="9ef6b27d71"><path d="M 208 156 L 593.507812 156 L 593.507812 560 L 208 560 Z M 208 156 " clip-rule="nonzero"/></clipPath></defs><g clip-path="url(#898da42e5d)"><path fill="#04dac5" d="M 471.015625 212.09375 C 471.015625 132.6875 406.476562 68.089844 327.144531 68.089844 L 178.324219 68.089844 C 98.996094 68.089844 34.453125 132.6875 34.453125 212.09375 L 34.453125 251.417969 C 34.453125 313.355469 73.808594 368.1875 132.382812 387.859375 L 138.140625 389.789062 L 135.097656 395.046875 C 127.285156 408.535156 116.671875 429.71875 102.65625 459.816406 C 100.972656 463.425781 101.726562 467.746094 104.53125 470.578125 C 107.320312 473.367188 111.761719 474.148438 115.253906 472.53125 L 283.824219 395.421875 L 327.144531 395.421875 C 406.476562 395.421875 471.015625 330.824219 471.015625 251.417969 Z M 451.925781 251.417969 C 451.925781 320.292969 395.949219 376.332031 327.144531 376.332031 L 281.746094 376.332031 C 280.386719 376.332031 279.015625 376.632812 277.777344 377.199219 L 131.160156 444.269531 L 137.507812 431.65625 C 143.304688 420.128906 153.785156 399.816406 158.824219 393.242188 L 159.394531 392.5 L 160.195312 392.015625 C 162.695312 390.5 164.34375 387.96875 164.71875 385.0625 C 165.367188 379.996094 161.929688 375.332031 156.898438 374.4375 C 97.011719 363.960938 53.539062 312.21875 53.539062 251.417969 L 53.539062 212.09375 C 53.539062 143.214844 109.515625 87.175781 178.320312 87.175781 L 327.144531 87.175781 C 395.949219 87.175781 451.921875 143.214844 451.921875 212.09375 L 451.921875 251.417969 Z M 451.925781 251.417969 " fill-opacity="1" fill-rule="nonzero"/></g><path fill="#04dac5" d="M 140.277344 207.949219 C 125.324219 207.949219 113.160156 220.117188 113.160156 235.066406 C 113.160156 250.019531 125.324219 262.183594 140.277344 262.183594 C 155.230469 262.183594 167.394531 250.019531 167.394531 235.066406 C 167.394531 220.117188 155.230469 207.949219 140.277344 207.949219 Z M 140.277344 207.949219 " fill-opacity="1" fill-rule="nonzero"/><path fill="#04dac5" d="M 365.191406 207.949219 C 350.238281 207.949219 338.074219 220.117188 338.074219 235.066406 C 338.074219 250.019531 350.238281 262.183594 365.191406 262.183594 C 380.144531 262.183594 392.308594 250.019531 392.308594 235.066406 C 392.308594 220.117188 380.144531 207.949219 365.191406 207.949219 Z M 365.191406 207.949219 " fill-opacity="1" fill-rule="nonzero"/><path fill="#04dac5" d="M 252.734375 207.949219 C 237.78125 207.949219 225.617188 220.117188 225.617188 235.066406 C 225.617188 250.019531 237.78125 262.183594 252.734375 262.183594 C 267.6875 262.183594 279.851562 250.019531 279.851562 235.066406 C 279.851562 220.117188 267.6875 207.949219 252.734375 207.949219 Z M 252.734375 207.949219 " fill-opacity="1" fill-rule="nonzero"/><g clip-path="url(#9ef6b27d71)"><path fill="#04dac5" d="M 227.808594 438.121094 L 208.164062 447.109375 C 233.222656 468.328125 265.53125 481.222656 300.847656 481.222656 L 344.171875 481.222656 L 512.738281 558.332031 C 516.230469 559.949219 520.671875 559.167969 523.460938 556.378906 C 526.265625 553.550781 527.023438 549.226562 525.335938 545.617188 C 511.324219 515.523438 500.710938 494.335938 492.898438 480.847656 L 489.855469 475.59375 L 495.613281 473.660156 C 554.1875 453.992188 593.542969 399.160156 593.542969 337.21875 L 593.542969 297.894531 C 593.542969 227.714844 543.070312 169.269531 476.585938 156.601562 C 479.132812 163.449219 481.199219 170.519531 482.792969 177.769531 C 482.828125 177.78125 482.863281 177.792969 482.898438 177.804688 C 482.859375 177.792969 482.820312 177.777344 482.78125 177.765625 C 485.203125 188.824219 486.570312 200.316406 486.570312 212.117188 L 486.570312 251.441406 C 486.570312 339.40625 415.066406 410.96875 327.167969 410.96875 L 287.222656 410.96875 M 463.277344 470.863281 L 463.273438 470.855469 " fill-opacity="1" fill-rule="nonzero"/></g></svg>